<?xml version="1.0" encoding="UTF-8"?>
<svg width="31px" height="29px" viewBox="0 0 31 29" version="1.1" xmlns="http://www.w3.org/2000/svg" xmlns:xlink="http://www.w3.org/1999/xlink">
    <!-- Generator: Sketch 50 (54983) - http://www.bohemiancoding.com/sketch -->
    <title>cart</title>
    <desc>Created with Sketch.</desc>
    <defs></defs>
    <g id="Page-1" stroke="none" stroke-width="1" fill="none" fill-rule="evenodd">
        <g id="cart" transform="translate(-1.000000, 0.000000)" fill="#000000" fill-rule="nonzero">
            <path d="M31.6096,3.752 C31.304,3.4016 30.864,3.2 30.4,3.2 L8.2896,3.2 L7.9776,1.3376 C7.8496,0.5664 7.1824,0 6.4,0 L2.8,0 C1.9152,0 1.2,0.7152 1.2,1.6 C1.2,2.4848 1.9152,3.2 2.8,3.2 L5.0448,3.2 L8.0208,21.0624 C8.0336,21.1344 8.0704,21.1936 8.0928,21.2608 C8.1184,21.3456 8.1392,21.4256 8.1792,21.5024 C8.2304,21.608 8.2992,21.6976 8.3712,21.7888 C8.4208,21.8512 8.4656,21.9136 8.5232,21.968 C8.616,22.0544 8.7232,22.1152 8.832,22.176 C8.8928,22.2096 8.9456,22.2544 9.0112,22.28 C9.1968,22.3552 9.392,22.4 9.5984,22.4 C9.6,22.4 27.2,22.4 27.2,22.4 C28.0848,22.4 28.8,21.6848 28.8,20.8 C28.8,19.9152 28.0848,19.2 27.2,19.2 L10.9552,19.2 L10.6896,17.6 L28.8,17.6 C29.5968,17.6 30.272,17.0144 30.384,16.2272 L31.984,5.0272 C32.0496,4.5664 31.912,4.1008 31.6096,3.752 Z M28.5552,6.4 L28.0992,9.6 L22.4,9.6 L22.4,6.4 L28.5552,6.4 Z M20.8,6.4 L20.8,9.6 L16,9.6 L16,6.4 L20.8,6.4 Z M20.8,11.2 L20.8,14.4 L16,14.4 L16,11.2 L20.8,11.2 Z M14.4,6.4 L14.4,9.6 L9.6,9.6 C9.5152,9.6 9.4384,9.624 9.3632,9.648 L8.8224,6.4 L14.4,6.4 Z M9.6224,11.2 L14.4,11.2 L14.4,14.4 L10.1552,14.4 L9.6224,11.2 Z M22.4,14.4 L22.4,11.2 L27.8688,11.2 L27.4128,14.4 L22.4,14.4 Z" id="Shape"></path>
            <circle id="Oval" cx="12" cy="26.4" r="2.4"></circle>
            <circle id="Oval" cx="26.4" cy="26.4" r="2.4"></circle>
        </g>
    </g>
</svg>