<?xml version="1.0" encoding="UTF-8"?>
<svg width="18px" height="20px" viewBox="0 0 18 20" version="1.1" xmlns="http://www.w3.org/2000/svg" xmlns:xlink="http://www.w3.org/1999/xlink">
    <!-- Generator: Sketch 51.1 (57501) - http://www.bohemiancoding.com/sketch -->
    <title>Group 3</title>
    <desc>Created with Sketch.</desc>
    <defs></defs>
    <g id="CABS---Common" stroke="none" stroke-width="1" fill="none" fill-rule="evenodd">
        <g id="A03-Copy-3" transform="translate(-37.000000, -290.000000)">
            <g id="Group-3" transform="translate(37.000000, 290.000000)">
                <g id="tree" fill="#000000" fill-rule="nonzero">
                    <path d="M14.9511287,14.210385 L12.7608873,11.5624918 C13.8166825,11.5608902 14.409858,10.3603812 13.7586666,9.54182572 L11.6349729,6.87217468 C12.6844189,6.80272149 13.198507,5.57357966 12.5007678,4.79689922 L8.57028569,0.421699631 C8.06516588,-0.14052748 7.17298199,-0.140605606 6.66782249,0.421699631 L2.73734034,4.79689922 C2.04039484,5.57268122 2.5522607,6.80264336 3.60313531,6.87217468 L1.47944161,9.54182572 C0.828488243,10.3601078 1.42110819,11.5608902 2.4772209,11.5624918 L0.287019168,14.210385 C-0.387942173,15.0258155 0.20340793,16.2499963 1.27142542,16.2499963 L6.6666717,16.2499963 C6.6666717,17.669568 6.51115559,18.4611313 5.48980483,19.4665229 C5.29039977,19.6628122 5.43170951,20 5.7142893,20 L9.52381889,20 C9.80580344,20 9.94810524,19.6632028 9.74830335,19.4665229 C8.72655577,18.4607407 8.57143649,17.668943 8.57143649,16.2499963 L13.9667224,16.2499963 C15.0352161,16.2499963 15.6257726,15.0254248 14.9511287,14.210385 Z M8.57143649,14.9999951 L8.57143649,14.2187444 C8.57143649,13.9598769 8.35822188,13.7499939 8.09524529,13.7499939 L7.1428629,13.7499939 C6.87988631,13.7499939 6.6666717,13.9598769 6.6666717,14.2187444 L6.6666717,14.9999951 L1.26983812,14.9999951 L5.14992337,10.3124905 L2.47920503,10.3124905 L6.20809957,5.62498596 L3.68857194,5.62498596 L7.61905409,1.24998169 L11.5495362,5.62498596 L9.03000861,5.62498596 L12.7589032,10.3124905 L10.0881848,10.3124905 L13.9682701,14.9999951 L8.57143649,14.9999951 Z" id="Shape"></path>
                </g>
                <circle id="Oval" stroke="#FFFFFF" fill="#E26777" cx="13" cy="5" r="4"></circle>
            </g>
        </g>
    </g>
</svg>
