<?xml version="1.0" encoding="UTF-8"?>
<svg width="52px" height="52px" viewBox="0 0 52 52" version="1.1" xmlns="http://www.w3.org/2000/svg" xmlns:xlink="http://www.w3.org/1999/xlink">
    <!-- Generator: Sketch 48.2 (47327) - http://www.bohemiancoding.com/sketch -->
    <title>Group 22</title>
    <desc>Created with Sketch.</desc>
    <defs>
        <circle id="path-1" cx="20" cy="20" r="20"></circle>
        <filter x="-22.5%" y="-22.5%" width="145.0%" height="145.0%" filterUnits="objectBoundingBox" id="filter-2">
            <feOffset dx="0" dy="0" in="SourceAlpha" result="shadowOffsetOuter1"></feOffset>
            <feGaussianBlur stdDeviation="3" in="shadowOffsetOuter1" result="shadowBlurOuter1"></feGaussianBlur>
            <feColorMatrix values="0 0 0 0 0   0 0 0 0 0   0 0 0 0 0  0 0 0 0.181187726 0" type="matrix" in="shadowBlurOuter1"></feColorMatrix>
        </filter>
    </defs>
    <g id="01-copy-7" stroke="none" stroke-width="1" fill="none" fill-rule="evenodd" transform="translate(-726.000000, -491.000000)">
        <g id="Group-6" transform="translate(732.000000, 497.000000)">
            <g id="Group-22">
                <g id="Oval-3">
                    <use fill="black" fill-opacity="1" filter="url(#filter-2)" xlink:href="#path-1"></use>
                    <use fill="#FFFFFF" fill-rule="evenodd" xlink:href="#path-1"></use>
                </g>
                <path d="M17,27.7483585 C17,28.3388415 17.4569957,28.8170449 18.0212288,28.8170449 L19.5531562,28.8170449 L19.5531562,30.4657156 C19.5531562,30.762354 19.7830591,31 20.0638268,31 C20.2069225,31 20.3368102,30.9383903 20.4288444,30.8397853 L22.3617039,28.8170743 L27.9787712,28.8170743 C28.5430043,28.8170743 29,28.3388709 29,27.7483879 L29,21.0687158 C29,20.4782327 28.5430043,20 27.9787712,20 L18.0212569,20 C17.4569957,20 17.0000281,20.4782327 17.0000281,21.0687158 L17.0000281,27.7483585 L17,27.7483585 Z" id="Path" fill="#AED4EF" transform="translate(23.000000, 25.500000) scale(-1, 1) translate(-23.000000, -25.500000) "></path>
                <path d="M9,24.157151 C9,24.8549945 9.57124457,25.4201439 10.276536,25.4201439 L12.1914453,25.4201439 L12.1914453,27.368573 C12.1914453,27.7191457 12.4788239,28 12.8297835,28 C13.0086531,28 13.1710127,27.9271885 13.2860555,27.8106553 L15.7021299,25.4201787 L22.723464,25.4201787 C23.4287554,25.4201787 24,24.8550293 24,24.1571857 L24,16.2630277 C24,15.5651841 23.4287554,15 22.723464,15 L10.2765711,15 C9.57124457,15 9.00003513,15.5651841 9.00003513,16.2630277 L9.00003513,24.157151 L9,24.157151 Z" id="Path" stroke="#151945" fill="#FFFFFF"></path>
                <path d="M29.0660999,14.4319424 C28.9195552,14.0588093 28.5428142,13.8263326 28.1502963,13.8660631 L26.9936089,13.98386 C26.6064482,12.6929879 26.6064482,11.3070414 26.9936357,10.0161419 L28.1502695,10.1339389 C28.5430017,10.1739428 28.9194749,9.94121995 29.0660731,9.56805949 L29.9360463,7.35299515 C30.096332,6.94491668 29.9470284,6.4796077 29.581082,6.2466661 L27.8410821,5.13902456 C27.4871624,4.91373921 27.033975,4.96640332 26.7389839,5.26688404 C23.0831359,8.99020354 23.0908769,15.0178648 26.7389839,18.7331452 C27.034216,19.0338174 27.4874571,19.0860986 27.8411088,18.8609774 L29.5810552,17.7533632 C29.9470016,17.5203942 30.0963052,17.0551126 29.9360195,16.6470341 L29.0660999,14.4319424 Z" id="Path" stroke="#151945" fill="#FFFFFF" transform="translate(27.000000, 12.000000) rotate(139.000000) translate(-27.000000, -12.000000) "></path>
            </g>
        </g>
    </g>
</svg>
