<?xml version="1.0" encoding="UTF-8"?>
<svg width="144px" height="37px" viewBox="0 0 144 37" version="1.1" xmlns="http://www.w3.org/2000/svg" xmlns:xlink="http://www.w3.org/1999/xlink">
    <!-- Generator: Sketch 50.2 (55047) - http://www.bohemiancoding.com/sketch -->
    <title>Group</title>
    <desc>Created with Sketch.</desc>
    <defs></defs>
    <g id="Page-1" stroke="none" stroke-width="1" fill="none" fill-rule="evenodd">
        <g id="Group">
            <g id="lumos-logomark">
                <path d="M3.2890625,32.6328125 L20.1640625,32.6328125 L20.1640625,35 L0.4765625,35 L0.4765625,0.875 L3.2890625,0.875 L3.2890625,32.6328125 Z M40.578125,30.8515625 C39.7656209,32.3359449 38.6718819,33.4804647 37.296875,34.2851562 C35.9218681,35.0898478 34.2968844,35.4921875 32.421875,35.4921875 C29.7499866,35.4921875 27.6562576,34.5859466 26.140625,32.7734375 C24.6249924,30.9609284 23.8671875,28.1484566 23.8671875,24.3359375 L23.8671875,9.640625 L26.6796875,9.640625 L26.6796875,24.3828125 C26.6796875,27.476578 27.207026,29.6953058 28.2617188,31.0390625 C29.3164115,32.3828192 30.8124903,33.0546875 32.75,33.0546875 C34.8750106,33.0546875 36.5703062,32.5781298 37.8359375,31.625 C39.1015688,30.6718702 39.9843725,29.3593834 40.484375,27.6875 L40.484375,9.640625 L43.296875,9.640625 L43.296875,35 L40.8125,35 L40.578125,30.8515625 Z M53.046875,9.640625 L53.3046875,13.8359375 C54.1171916,12.3515551 55.199212,11.2031291 56.5507812,10.390625 C57.9023505,9.57812094 59.5156156,9.171875 61.390625,9.171875 C63.3281347,9.171875 64.9492122,9.64062031 66.2539062,10.578125 C67.5586003,11.5156297 68.4921847,12.9453029 69.0546875,14.8671875 C69.8203163,13.0859286 70.9101492,11.6914113 72.3242188,10.6835938 C73.7382883,9.67577621 75.4609273,9.171875 77.4921875,9.171875 C80.195326,9.171875 82.2812427,10.0703035 83.75,11.8671875 C85.2187573,13.6640715 85.953125,16.4452937 85.953125,20.2109375 L85.953125,35 L83.140625,35 L83.140625,20.1640625 C83.140625,17.0390469 82.5898493,14.8320377 81.4882812,13.5429688 C80.3867132,12.2538998 78.8515723,11.609375 76.8828125,11.609375 C74.7109266,11.609375 73.0312559,12.2890557 71.84375,13.6484375 C70.6562441,15.0078193 69.9218764,16.7499894 69.640625,18.875 C69.640625,18.9843755 69.6445312,19.140624 69.6523438,19.34375 C69.6601563,19.546876 69.6640625,19.695312 69.6640625,19.7890625 L69.6640625,35 L66.828125,35 L66.828125,20.1640625 C66.828125,17.1015472 66.2695368,14.9101629 65.1523438,13.5898438 C64.0351507,12.2695246 62.5000098,11.609375 60.546875,11.609375 C58.5624901,11.609375 56.9882871,12.1132762 55.8242188,13.1210938 C54.6601504,14.1289113 53.8437523,15.4843665 53.375,17.1875 L53.375,35 L50.5390625,35 L50.5390625,9.640625 L53.046875,9.640625 Z" id="Lum" fill="#151945"></path>
                <g id="Group-2-Copy" stroke-linecap="round" transform="translate(86.000000, 3.000000)" stroke="#151945" stroke-width="2">
                    <path d="M18.6757367,32 C26.0345241,32 32,26.1797017 32,19 C32,17.1654373 31.610509,15.4196312 30.9078052,13.8370035 C28.8604239,9.22589661 24.1542013,6 18.6757367,6 C12.7540956,6 7.73469003,9.76891966 6,14.9822596" id="Oval" transform="translate(19.000000, 19.000000) rotate(-138.000000) translate(-19.000000, -19.000000) "></path>
                    <polyline id="Star" stroke-linejoin="round" transform="translate(19.000000, 22.500000) rotate(28.000000) translate(-19.000000, -22.500000) " points="22.0155742 32 19 21.9150551 15.2917961 23.7516574 16 19.8616712 13 17.1067677 17.145898 16.5392264 19 13 20.854102 16.5392264 25 17.1067677 22 19.8616712"></polyline>
                    <path d="M30,19.3769531 L32,18" id="Path-2"></path>
                    <path d="M31,22.3769531 L34,24" id="Path-2-Copy"></path>
                </g>
            </g>
            <path d="M140.890625,28.2828121 C140.890625,27.0953062 140.402349,26.0562541 139.425781,25.1656246 C138.449214,24.2749952 136.687513,23.5484399 134.140625,22.9859371 C131.10936,22.3296838 128.871101,21.462505 127.425781,20.3843746 C125.980462,19.3062442 125.257812,17.782822 125.257812,15.8140621 C125.257812,13.8765524 126.074211,12.23985 127.707031,10.9039059 C129.339852,9.56796169 131.499987,8.89999962 134.1875,8.89999962 C137.046889,8.89999962 139.312492,9.6070238 140.984375,11.0210934 C142.656258,12.4351629 143.453125,14.2046765 143.375,16.3296871 L143.328125,16.4703121 L140.726562,16.4703121 C140.726562,15.0796802 140.136725,13.8687548 138.957031,12.8374996 C137.777338,11.8062445 136.18751,11.2906246 134.1875,11.2906246 C132.140615,11.2906246 130.605474,11.7320265 129.582031,12.6148434 C128.558589,13.4976603 128.046875,14.5328062 128.046875,15.7203121 C128.046875,16.892193 128.488277,17.8609333 129.371094,18.6265621 C130.253911,19.3921909 132.015612,20.0640592 134.65625,20.6421871 C137.67189,21.3140655 139.92968,22.232025 141.429688,23.3960934 C142.929695,24.5601617 143.679688,26.1421771 143.679688,28.1421871 C143.679688,30.2515727 142.824227,31.9585868 141.113281,33.2632809 C139.402335,34.5679749 137.140639,35.2203121 134.328125,35.2203121 C131.249985,35.2203121 128.83204,34.4859445 127.074219,33.0171871 C125.316397,31.5484298 124.484375,29.7984473 124.578125,27.7671871 L124.625,27.6265621 L127.203125,27.6265621 C127.312501,29.4546963 128.058587,30.782808 129.441406,31.6109371 C130.824226,32.4390663 132.453116,32.8531246 134.328125,32.8531246 C136.359385,32.8531246 137.960932,32.4078166 139.132812,31.5171871 C140.304693,30.6265577 140.890625,29.5484434 140.890625,28.2828121 Z" id="s" fill="#151945"></path>
        </g>
    </g>
</svg>