<?xml version="1.0" encoding="UTF-8"?>
<svg width="30px" height="28px" viewBox="0 0 30 28" version="1.1" xmlns="http://www.w3.org/2000/svg" xmlns:xlink="http://www.w3.org/1999/xlink">
    <!-- Generator: Sketch 48.2 (47327) - http://www.bohemiancoding.com/sketch -->
    <title>Group 9</title>
    <desc>Created with Sketch.</desc>
    <defs></defs>
    <g id="Page-1" stroke="none" stroke-width="1" fill="none" fill-rule="evenodd">
        <g id="Group-9" transform="translate(-2.000000, -2.000000)">
            <g id="if_avatar_1814089">
                <path d="M16.1184181,26.7492178 C22.0643706,26.0354783 26.6731743,20.9736401 26.6731743,14.8353581 C26.6731743,13.1662253 26.3323925,11.5766863 25.7166099,10.132522 C23.8873814,5.84252383 19.6314585,2.8353581 14.6731743,2.8353581 C9.18219425,2.8353581 4.5525994,6.52338663 3.12633417,11.5574993" id="Oval-7" stroke="#151945" stroke-width="1.4" stroke-linecap="round" transform="translate(14.899754, 14.792288) rotate(-105.000000) translate(-14.899754, -14.792288) "></path>
                <path d="M6.29628628,24.2481912 C6.68008689,23.351734 7.88631738,22.8771391 9.25703385,22.2970786 C10.5729217,21.717018 12.2177814,21.031492 12.2177814,20.1877676 L12.2177814,19.0276466 C11.7243235,18.6585172 10.9567223,17.8147928 10.847065,16.601939 C10.4632643,16.2328096 9.8601491,15.5472835 9.8601491,14.7035592 C9.8601491,14.1762314 10.0794637,13.7543692 10.2439497,13.4907054 C10.1342924,12.9106449 9.91497776,11.7505238 9.91497776,10.8540667 C9.91497776,7.95376414 11.9984668,6.05538429 15.2881863,6.05538429 C16.2202735,6.05538429 17.3716754,6.31904816 17.9747906,6.95184144 C19.4551644,7.21550531 20.6613949,8.90295406 20.6613949,10.8540667 C20.6613949,12.1196533 19.1261924,12.3833171 19.1261924,10.8013339 C19.1261924,9.48301457 18.3585912,8.27016078 17.5361613,8.27016078 L17.0975321,8.27016078 L16.8782174,7.90103137 C16.7137315,7.6373675 16.0557876,7.37370363 15.178529,7.37370363 C12.7112394,7.37370363 11.2308656,8.6392902 11.2308656,10.8013339 C11.2308656,11.8032566 11.6146662,13.4379726 11.6146662,13.4379726 L11.7243235,13.807102 L11.4501802,14.0707659 C11.4501802,14.0707659 11.2308656,14.3344297 11.2308656,14.5980936 C11.2308656,14.967223 11.7243235,15.441818 11.9436381,15.6527491 L12.2177814,15.8636802 L12.2177814,16.2328096 C12.2177814,17.3929306 13.2595259,18.0257239 13.2595259,18.0257239 L13.5884979,18.236655 L13.5884979,20.1350348 C13.5884979,21.8752164 11.5598375,22.7716735 9.75049178,23.5099323 C8.98289056,23.9317945 7.83148872,24.4591223 7.61217409,24.8282517 L6.29628628,24.2481912 Z" id="Fill-58" fill="#151945" fill-rule="nonzero"></path>
            </g>
            <g id="if_icons_settings_1564529" transform="translate(16.000000, 13.000000)" stroke="#151945">
                <path d="M14.2278242,8.34039539 L14.2631267,8.36151529 C15.154936,8.93128234 15.4429292,10.0628558 14.9368904,11.1203027 L14.2972565,12.1619499 C13.7667182,13.0771285 12.5522973,13.4053854 11.598727,12.8570235 L10.8063247,12.4138348 C10.4308699,12.1924127 9.91595714,12.4758886 9.91595714,12.8676414 L9.91595714,13.6757541 C9.91595714,14.7529629 9.01226147,15.6190046 7.91865235,15.6190046 L6.62134761,15.6190046 C5.52773849,15.6190046 4.62404282,14.7529629 4.62404282,13.6757541 L4.62404282,12.8054789 C4.62404282,12.4137261 4.10913007,12.1302502 3.6805699,12.3799873 L2.97657543,12.7115786 C2.05691308,13.2991407 0.845751855,13.0015262 0.251761941,12.0527405 L-0.374944539,11.0295359 C-1.00811555,10.1193526 -0.68563376,8.91407687 0.312175732,8.34039539 L1.11112937,7.89420437 C1.44904309,7.71983222 1.44904309,7.1991723 1.09055858,7.01374677 L0.276873281,6.55748923 C-0.614109526,5.98825022 -0.912320969,4.84510635 -0.39689043,3.86086433 L0.24274347,2.81921713 C0.773281782,1.90403854 1.9877027,1.57578161 2.90218706,2.10387957 L3.7336753,2.50516977 C4.10913007,2.72659182 4.62404282,2.44311592 4.62404282,2.05136312 L4.62404282,1.24325038 C4.62404282,0.166041632 5.52773849,-0.700000048 6.62134761,-0.700000048 L7.91865235,-0.700000048 C9.01226147,-0.700000048 9.91595714,0.166041632 9.91595714,1.24325038 L9.91595714,2.11352564 C9.91595714,2.50527843 10.4308699,2.78875434 10.8203441,2.55928113 L11.5634245,2.14526341 C12.4830869,1.55770135 13.6942481,1.85531575 14.288238,2.80410151 L14.9149445,3.82730611 C15.5481155,4.73748944 15.2256337,5.94276514 14.2278242,6.51644662 L13.4634609,6.9435331 C13.0794268,7.17001473 13.0794268,7.68682728 13.4494414,7.90525775 L14.2278242,8.34039539 Z" id="settings" stroke-width="1.4000001" fill-rule="nonzero"></path>
                <circle id="Oval-8" stroke-width="1.4" cx="7" cy="8" r="2"></circle>
            </g>
        </g>
    </g>
</svg>
