<?xml version="1.0" encoding="UTF-8"?>
<svg width="14px" height="16px" viewBox="0 0 14 16" version="1.1" xmlns="http://www.w3.org/2000/svg" xmlns:xlink="http://www.w3.org/1999/xlink">
    <!-- Generator: Sketch 48.2 (47327) - http://www.bohemiancoding.com/sketch -->
    <title>Shape</title>
    <desc>Created with Sketch.</desc>
    <defs></defs>
    <g id="Page-1" stroke="none" stroke-width="1" fill="none" fill-rule="evenodd">
        <g id="Group-32" transform="translate(-16.000000, -267.000000)" fill="#000000" fill-rule="nonzero">
            <g id="Group-26">
                <g id="Group-7">
                    <g id="paperclip" transform="translate(16.000000, 267.000000)">
                        <path d="M3.82941861,15.0769231 C2.84835186,15.0769231 1.86725544,14.7061841 1.12039182,13.9646766 C-0.373454053,12.4816912 -0.373454053,10.0686779 1.1203325,8.58572192 L8.89361664,0.868637947 C10.0602129,-0.289545982 11.958427,-0.289545982 13.1250528,0.868637947 C14.2916491,2.02685132 14.2916491,3.91131855 13.1250528,5.06947304 L6.52162763,11.6251633 C5.68231072,12.4585457 4.31642233,12.4586046 3.47692746,11.6251633 C2.63752157,10.7917809 2.63752157,9.43580083 3.47692746,8.60244787 L8.52822296,3.58766547 C8.66721434,3.44967635 8.8925785,3.44967635 9.03156988,3.58766547 L9.19948072,3.7543655 C9.3384721,3.89235462 9.3384721,4.11609369 9.19948072,4.25411226 L4.14821489,9.26886522 C3.67894843,9.7347478 3.67894843,10.4927751 4.14824455,10.9586871 C4.617511,11.4245402 5.38107375,11.4245402 5.8503402,10.9586871 L12.4537654,4.4029968 C13.2501925,3.61231269 13.2501925,2.32576885 12.4537654,1.53502584 C11.6572196,0.744341734 10.3613608,0.744400628 9.56493372,1.53502584 L1.79164959,9.25216871 C0.668032131,10.3676838 0.668032131,12.1827148 1.79164959,13.2982298 C2.91532636,14.4137155 4.74359985,14.4137449 5.86718764,13.2982593 L12.3256596,6.88647696 C12.464651,6.74848784 12.6900152,6.74848784 12.8290065,6.88647696 L12.9969174,7.05317699 C13.1359088,7.19116611 13.1359088,7.41490518 12.9969174,7.55292375 L6.53847507,13.9646766 C5.79161145,14.7061841 4.81051503,15.0769231 3.82941861,15.0769231 Z" id="Shape"></path>
                    </g>
                </g>
            </g>
        </g>
    </g>
</svg>
