<?xml version="1.0" encoding="UTF-8"?>
<svg width="16px" height="16px" viewBox="0 0 16 16" version="1.1" xmlns="http://www.w3.org/2000/svg" xmlns:xlink="http://www.w3.org/1999/xlink">
    <!-- Generator: Sketch 50.2 (55047) - http://www.bohemiancoding.com/sketch -->
    <title>search</title>
    <desc>Created with Sketch.</desc>
    <defs></defs>
    <g id="Page-1" stroke="none" stroke-width="1" fill="none" fill-rule="evenodd">
        <path d="M10.0282694,11.5220033 C8.99022376,12.2616734 7.72010385,12.6967381 6.34836903,12.6967381 C2.84226145,12.6967381 0,9.85447661 0,6.34836903 C0,2.84226145 2.84226145,0 6.34836903,0 C9.85447661,0 12.6967381,2.84226145 12.6967381,6.34836903 C12.6967381,7.72010385 12.2616734,8.99022376 11.5220033,10.0282694 L15.6931067,14.1993728 C16.1040336,14.6102998 16.1006075,15.2678041 15.692958,15.6754537 L15.6754537,15.692958 C15.2688468,16.0995648 14.6069402,16.1006741 14.1993728,15.6931067 L10.0282694,11.5220033 Z M6.34836903,11.2030042 C9.02951016,11.2030042 11.2030042,9.02951016 11.2030042,6.34836903 C11.2030042,3.66722791 9.02951016,1.49373389 6.34836903,1.49373389 C3.66722791,1.49373389 1.49373389,3.66722791 1.49373389,6.34836903 C1.49373389,9.02951016 3.66722791,11.2030042 6.34836903,11.2030042 Z" id="search" fill="#FFFFFF" fill-rule="nonzero"></path>
    </g>
</svg>