<?xml version="1.0" encoding="UTF-8"?>
<svg width="28px" height="25px" viewBox="0 0 28 25" version="1.1" xmlns="http://www.w3.org/2000/svg" xmlns:xlink="http://www.w3.org/1999/xlink">
    <!-- Generator: Sketch 48.2 (47327) - http://www.bohemiancoding.com/sketch -->
    <title>Shape</title>
    <desc>Created with Sketch.</desc>
    <defs></defs>
    <g id="01-copy-7" stroke="none" stroke-width="1" fill="none" fill-rule="evenodd" transform="translate(-735.000000, -565.000000)">
        <g id="Group-2" transform="translate(735.000000, 564.000000)" fill="#151945" fill-rule="nonzero">
            <g id="cart-plus" transform="translate(0.000000, 1.000000)">
                <path d="M26.8328522,3.125 L6.28443422,3.125 L5.87955293,0.955908203 C5.77606005,0.401660156 5.29427611,0 4.7328673,0 L0.583332384,0 C0.261187075,0 0,0.262353516 0,0.5859375 L0,0.9765625 C0,1.30014648 0.261187075,1.5625 0.583332384,1.5625 L4.40999282,1.5625 L7.80921646,19.7727539 C7.30648117,20.327832 6.99998861,21.0654297 6.99998861,21.875 C6.99998861,23.6008789 8.39288912,25 10.1110947,25 C11.8293002,25 13.2222007,23.6008789 13.2222007,21.875 C13.2228066,21.3263127 13.0788586,20.7872345 12.8049722,20.3125 L19.8616899,20.3125 C19.5878036,20.7872345 19.4438555,21.3263127 19.4444614,21.875 C19.4444614,23.6008789 20.8373619,25 22.5555675,25 C24.273773,25 25.6666735,23.6008789 25.6666735,21.875 C25.6666735,20.9964355 25.3052505,20.203125 24.7242028,19.6353516 C24.5982516,19.1353027 24.1480163,18.75 23.5922949,18.75 L9.20109614,18.75 L8.61776375,15.625 L24.7265362,15.625 C25.2791464,15.625 25.755972,15.2355469 25.868701,14.6921387 L27.9750656,4.53588867 C28.1259542,3.8081543 27.5729065,3.125 26.8328522,3.125 Z M22.1052632,20.5882353 C22.9178618,20.5882353 23.5789474,21.247932 23.5789474,22.0588235 C23.5789474,22.8697151 22.9178618,23.5294118 22.1052632,23.5294118 C21.2926645,23.5294118 20.6315789,22.8697151 20.6315789,22.0588235 C20.6315789,21.247932 21.2926645,20.5882353 22.1052632,20.5882353 Z M10.3157895,20.5882353 C11.1283882,20.5882353 11.7894737,21.247932 11.7894737,22.0588235 C11.7894737,22.8697151 11.1283882,23.5294118 10.3157895,23.5294118 C9.50319079,23.5294118 8.84210526,22.8697151 8.84210526,22.0588235 C8.84210526,21.247932 9.50319079,20.5882353 10.3157895,20.5882353 Z M24.5704632,13.9705882 L8.39184627,13.9705882 L6.63157895,4.41176471 L26.5263158,4.41176471 L24.5704632,13.9705882 Z M13.2631579,9.00735294 L13.2631579,8.63970588 C13.2631579,8.33515625 13.5105987,8.08823529 13.8157895,8.08823529 L15.4736842,8.08823529 L15.4736842,6.43382353 C15.4736842,6.1292739 15.721125,5.88235294 16.0263158,5.88235294 L16.3947368,5.88235294 C16.6999276,5.88235294 16.9473684,6.1292739 16.9473684,6.43382353 L16.9473684,8.08823529 L18.6052632,8.08823529 C18.9104539,8.08823529 19.1578947,8.33515625 19.1578947,8.63970588 L19.1578947,9.00735294 C19.1578947,9.31190257 18.9104539,9.55882353 18.6052632,9.55882353 L16.9473684,9.55882353 L16.9473684,11.2132353 C16.9473684,11.5177849 16.6999276,11.7647059 16.3947368,11.7647059 L16.0263158,11.7647059 C15.721125,11.7647059 15.4736842,11.5177849 15.4736842,11.2132353 L15.4736842,9.55882353 L13.8157895,9.55882353 C13.5105987,9.55882353 13.2631579,9.31190257 13.2631579,9.00735294 Z" id="Shape"></path>
            </g>
        </g>
    </g>
</svg>
